<svg xmlns="http://www.w3.org/2000/svg" viewBox="0 0 1400 1092" width="1400" height="1092" role="img" aria-label="Family dermatology support and shared follow-up"><defs><linearGradient id="bg-v6-clinic-statement-family-support" x1="0%" y1="0%" x2="100%" y2="100%"><stop offset="0%" stop-color="#14202c" /><stop offset="55%" stop-color="#37536a" /><stop offset="100%" stop-color="#070c13" /></linearGradient><linearGradient id="panel-v6-clinic-statement-family-support" x1="10%" y1="0%" x2="90%" y2="100%"><stop offset="0%" stop-color="rgba(255,255,255,0.14)" /><stop offset="100%" stop-color="rgba(255,255,255,0.05)" /></linearGradient><radialGradient id="vignette-v6-clinic-statement-family-support" cx="50%" cy="50%" r="65%"><stop offset="45%" stop-color="rgba(255,255,255,0)" /><stop offset="100%" stop-color="rgba(0,0,0,0.18)" /></radialGradient></defs><g><rect width="1400" height="1092" fill="url(#bg-v6-clinic-statement-family-support)"></rect><circle cx="591.0295096181868" cy="149.557926843259" r="332.1449499419296" fill="#a6d7f4" opacity="0.061491639328070835"></circle><circle cx="1112.7537527360846" cy="777.9053532300762" r="177.46218115497896" fill="#ffd47d" opacity="0.07404609595985294"></circle><circle cx="1280.9609781091476" cy="209.8695018565444" r="221.0591362372644" fill="#a6d7f4" opacity="0.06363960900661526"></circle><rect x="1362.1404283126212" y="254.59537505791414" width="501.60076553598066" height="241.5240157127576" rx="26" fill="#f6e0ce" opacity="0.037706561868010684" transform="rotate(-0.10337304093487809 1613 375)"></rect><rect x="70" y="109.2" width="1260" height="895.4399999999999" rx="40" fill="rgba(255,255,255,0.05)" stroke="rgba(255,255,255,0.12)" stroke-width="1.8"></rect><rect x="168" y="174.72" width="1064" height="742.5600000000001" rx="34" fill="url(#panel-v6-clinic-statement-family-support)" stroke="rgba(255,255,255,0.08)" stroke-width="1.2"></rect><line x1="168" y1="829.92" x2="1232" y2="829.92" stroke="rgba(255,255,255,0.05)" stroke-width="2" opacity="1" stroke-linecap="round"></line><rect width="1400" height="1092" fill="url(#vignette-v6-clinic-statement-family-support)"></rect></g><g><rect x="196.00000000000003" y="240.24" width="1008" height="546" rx="32" fill="#12243b" opacity="0.92" stroke="rgba(255,255,255,0.08)" stroke-width="1.2"></rect><rect x="252" y="305.76000000000005" width="336" height="196.56" rx="24" fill="#a6d7f4" opacity="0.24" stroke="rgba(255,255,255,0.16)" stroke-width="1.4"></rect><rect x="896" y="283.92" width="196.00000000000003" height="174.72" rx="18" fill="#ffd47d" opacity="0.18"></rect><rect x="364" y="611.5200000000001" width="532" height="87.36" rx="18" fill="#f6e0ce" opacity="0.74"></rect><rect x="252" y="720.72" width="896" height="98.28" rx="22" fill="#37536a" opacity="0.58"></rect><circle cx="638.9147698154941" cy="218.4" r="30.799999999999997" fill="#fff5ef" opacity="0.34"></circle><rect x="336" y="393.12" width="196.00000000000003" height="21.84" rx="6" fill="#ffffff" opacity="0.22"></rect><rect x="924" y="502.32000000000005" width="126" height="174.72" rx="14" fill="rgba(255,255,255,0.12)"></rect><line x1="252" y1="808.08" x2="1148" y2="808.08" stroke="rgba(255,255,255,0.06)" stroke-width="2" opacity="1" stroke-linecap="round"></line><g transform="translate(364 502) scale(0.98)"><rect x="-9" y="25" width="18" height="24" rx="8" fill="#f6e0ce" opacity="0.94"></rect><rect x="-67" y="64" width="20" height="72" rx="14" fill="rgba(242,248,255,0.92)" opacity="0.9" transform="rotate(-8 -59 92)"></rect><rect x="47" y="62" width="20" height="72" rx="14" fill="rgba(242,248,255,0.92)" opacity="0.9" transform="rotate(8 55 90)"></rect><path d="M -84 138 C -66 47, 66 47, 84 138 L 67 186 L -67 186 Z" fill="rgba(242,248,255,0.92)" opacity="0.98"></path><rect x="-12" y="40" width="24" height="64" rx="12" fill="#ffd47d" opacity="0.18"></rect><path d="M -18 52 L -6 96 L -24 114 Z" fill="rgba(255,255,255,0.9)" opacity="0.88"></path><path d="M 18 52 L 6 96 L 24 114 Z" fill="rgba(255,255,255,0.9)" opacity="0.88"></path><rect x="20" y="84" width="14" height="18" rx="8" fill="#ffd47d" opacity="0.16"></rect><circle cx="0" cy="0" r="30" fill="#f6e0ce" opacity="0.98"></circle><path d="M -30 2 C -28 -31, 28 -31, 30 2 L 21 0 C 7 -8, -7 -8, -21 0 Z" fill="#37536a" opacity="0.96"></path><line x1="-12" y1="-2" x2="-4" y2="-2" stroke="rgba(34,41,56,0.42)" stroke-width="2.2" opacity="1" stroke-linecap="round"></line><line x1="4" y1="-2" x2="12" y2="-2" stroke="rgba(34,41,56,0.42)" stroke-width="2.2" opacity="1" stroke-linecap="round"></line><line x1="-13" y1="-7" x2="-4" y2="-6" stroke="rgba(34,41,56,0.24)" stroke-width="1.8" opacity="1" stroke-linecap="round"></line><line x1="4" y1="-6" x2="13" y2="-7" stroke="rgba(34,41,56,0.24)" stroke-width="1.8" opacity="1" stroke-linecap="round"></line><path d="M -5 13 Q 0 16 5 13" fill="transparent" stroke="rgba(74,58,56,0.32)" stroke-width="2.4" stroke-linecap="round"></path></g><g transform="translate(756 590) scale(0.64)"><rect x="-7" y="20" width="14" height="18" rx="8" fill="#f6e0ce" opacity="0.94"></rect><rect x="-54" y="56" width="16" height="54" rx="14" fill="rgba(243,229,214,0.8)" opacity="0.9" transform="rotate(-8 -48 84)"></rect><rect x="38" y="54" width="16" height="54" rx="14" fill="rgba(243,229,214,0.8)" opacity="0.9" transform="rotate(8 45 82)"></rect><path d="M -68 92 C -53 31, 53 31, 68 92 L 54 140 L -54 140 Z" fill="rgba(243,229,214,0.8)" opacity="0.98"></path><rect x="-12" y="32" width="24" height="64" rx="12" fill="#a6d7f4" opacity="0.18"></rect><path d="M -15 44 L -6 88 L -19 106 Z" fill="rgba(255,255,255,0.9)" opacity="0.88"></path><path d="M 15 44 L 6 88 L 19 106 Z" fill="rgba(255,255,255,0.9)" opacity="0.88"></path><rect x="16" y="76" width="14" height="18" rx="8" fill="#a6d7f4" opacity="0.16"></rect><circle cx="0" cy="0" r="24" fill="#f6e0ce" opacity="0.98"></circle><path d="M -24 2 C -22 -25, 22 -25, 24 2 L 17 0 C 6 -6, -6 -6, -17 0 Z" fill="#37536a" opacity="0.96"></path><line x1="-10" y1="-2" x2="-3" y2="-2" stroke="rgba(34,41,56,0.42)" stroke-width="2.2" opacity="1" stroke-linecap="round"></line><line x1="3" y1="-2" x2="10" y2="-2" stroke="rgba(34,41,56,0.42)" stroke-width="2.2" opacity="1" stroke-linecap="round"></line><line x1="-11" y1="-6" x2="-3" y2="-5" stroke="rgba(34,41,56,0.24)" stroke-width="1.8" opacity="1" stroke-linecap="round"></line><line x1="3" y1="-5" x2="11" y2="-6" stroke="rgba(34,41,56,0.24)" stroke-width="1.8" opacity="1" stroke-linecap="round"></line><path d="M -4 10 Q 0 13 4 10" fill="transparent" stroke="rgba(74,58,56,0.32)" stroke-width="2.4" stroke-linecap="round"></path></g><g transform="translate(896 284)"><rect x="0" y="0" width="196.00000000000003" height="152.88000000000002" rx="20" fill="#102237" stroke="rgba(255,255,255,0.08)" stroke-width="1.2"></rect><rect x="23.520000000000003" y="18.3456" width="148.96000000000004" height="27.518400000000003" rx="12" fill="#ffd47d" opacity="0.16"></rect><rect x="39.20000000000001" y="61.152000000000015" width="43.120000000000005" height="12.230400000000003" rx="8" fill="#a6d7f4" opacity="0.2"></rect><rect x="98.00000000000001" y="61.152000000000015" width="35.28" height="12.230400000000003" rx="8" fill="#a6d7f4" opacity="0.12"></rect><line x1="39.20000000000001" y1="100.90080000000002" x2="156.80000000000004" y2="100.90080000000002" stroke="rgba(255,255,255,0.12)" stroke-width="3" opacity="1" stroke-linecap="round"></line></g><rect x="644" y="371.28000000000003" width="224" height="131.04" rx="16" fill="#fff4ea" opacity="0.9" transform="rotate(-8 756 437)"></rect></g><circle cx="252" cy="131.04" r="42" fill="#a6d7f4" opacity="0.2"></circle><circle cx="1148" cy="196.56" r="30.799999999999997" fill="#ffd47d" opacity="0.22"></circle></svg>