<svg xmlns="http://www.w3.org/2000/svg" viewBox="0 0 1400 700" width="1400" height="700" role="img" aria-label="Editorial panorama of the dermatology clinical environment"><defs><linearGradient id="bg-v6-clinic-brand-hero-wide" x1="0%" y1="0%" x2="100%" y2="100%"><stop offset="0%" stop-color="#0b1220" /><stop offset="55%" stop-color="#1e3b5c" /><stop offset="100%" stop-color="#070c13" /></linearGradient><linearGradient id="panel-v6-clinic-brand-hero-wide" x1="10%" y1="0%" x2="90%" y2="100%"><stop offset="0%" stop-color="rgba(255,255,255,0.14)" /><stop offset="100%" stop-color="rgba(255,255,255,0.05)" /></linearGradient><radialGradient id="vignette-v6-clinic-brand-hero-wide" cx="50%" cy="50%" r="65%"><stop offset="45%" stop-color="rgba(255,255,255,0)" /><stop offset="100%" stop-color="rgba(0,0,0,0.18)" /></radialGradient></defs><g><rect width="1400" height="700" fill="url(#bg-v6-clinic-brand-hero-wide)"></rect><circle cx="536.7400925808446" cy="649.9339451442785" r="257.8305101547927" fill="#6db7ff" opacity="0.05657306564193523"></circle><circle cx="499.0557772594168" cy="67.46104749209738" r="121.62522661164991" fill="#7fd1ff" opacity="0.07690711276300884"></circle><circle cx="1020.9592884990758" cy="358.38301171161766" r="183.21607108954714" fill="#6db7ff" opacity="0.07070900162232784"></circle><rect x="1126.1543536386812" y="302.77457204711965" width="380.26861952251494" height="139.67506624191884" rx="26" fill="#ffe4d4" opacity="0.04375519091118015" transform="rotate(4.561913482509999 1316 373)"></rect><rect x="70" y="70" width="1260" height="574" rx="40" fill="rgba(255,255,255,0.05)" stroke="rgba(255,255,255,0.12)" stroke-width="1.8"></rect><rect x="168" y="112" width="1064" height="476.00000000000006" rx="34" fill="url(#panel-v6-clinic-brand-hero-wide)" stroke="rgba(255,255,255,0.08)" stroke-width="1.2"></rect><line x1="168" y1="532" x2="1232" y2="532" stroke="rgba(255,255,255,0.05)" stroke-width="2" opacity="1" stroke-linecap="round"></line><rect width="1400" height="700" fill="url(#vignette-v6-clinic-brand-hero-wide)"></rect></g><g><rect x="196.00000000000003" y="154" width="1008" height="350" rx="32" fill="#12243b" opacity="0.92" stroke="rgba(255,255,255,0.08)" stroke-width="1.2"></rect><rect x="252" y="196.00000000000003" width="336" height="126" rx="24" fill="#6db7ff" opacity="0.24" stroke="rgba(255,255,255,0.16)" stroke-width="1.4"></rect><rect x="896" y="182" width="196.00000000000003" height="112" rx="18" fill="#7fd1ff" opacity="0.18"></rect><rect x="364" y="392.00000000000006" width="532" height="56" rx="18" fill="#ffe4d4" opacity="0.74"></rect><rect x="252" y="462" width="896" height="63" rx="22" fill="#1e3b5c" opacity="0.58"></rect><circle cx="782.4888410588003" cy="140" r="30.799999999999997" fill="#fff5ef" opacity="0.34"></circle><rect x="336" y="252" width="196.00000000000003" height="14" rx="6" fill="#ffffff" opacity="0.22"></rect><rect x="924" y="322" width="126" height="112" rx="14" fill="rgba(255,255,255,0.12)"></rect><line x1="252" y1="518" x2="1148" y2="518" stroke="rgba(255,255,255,0.06)" stroke-width="2" opacity="1" stroke-linecap="round"></line><g transform="translate(448 308) scale(1.12)"><rect x="-9" y="25" width="18" height="24" rx="8" fill="#ffe4d4" opacity="0.94"></rect><rect x="-67" y="64" width="20" height="72" rx="14" fill="rgba(242,248,255,0.92)" opacity="0.9" transform="rotate(-8 -59 92)"></rect><rect x="47" y="62" width="20" height="72" rx="14" fill="rgba(242,248,255,0.92)" opacity="0.9" transform="rotate(8 55 90)"></rect><path d="M -84 138 C -66 47, 66 47, 84 138 L 67 186 L -67 186 Z" fill="rgba(242,248,255,0.92)" opacity="0.98"></path><rect x="-12" y="40" width="24" height="64" rx="12" fill="#7fd1ff" opacity="0.18"></rect><path d="M -18 52 L -6 96 L -24 114 Z" fill="rgba(255,255,255,0.9)" opacity="0.88"></path><path d="M 18 52 L 6 96 L 24 114 Z" fill="rgba(255,255,255,0.9)" opacity="0.88"></path><rect x="20" y="84" width="14" height="18" rx="8" fill="#7fd1ff" opacity="0.16"></rect><circle cx="0" cy="0" r="30" fill="#ffe4d4" opacity="0.98"></circle><path d="M -30 2 C -28 -31, 28 -31, 30 2 L 21 0 C 7 -8, -7 -8, -21 0 Z" fill="#1e3b5c" opacity="0.96"></path><line x1="-12" y1="-2" x2="-4" y2="-2" stroke="rgba(34,41,56,0.42)" stroke-width="2.2" opacity="1" stroke-linecap="round"></line><line x1="4" y1="-2" x2="12" y2="-2" stroke="rgba(34,41,56,0.42)" stroke-width="2.2" opacity="1" stroke-linecap="round"></line><line x1="-13" y1="-7" x2="-4" y2="-6" stroke="rgba(34,41,56,0.24)" stroke-width="1.8" opacity="1" stroke-linecap="round"></line><line x1="4" y1="-6" x2="13" y2="-7" stroke="rgba(34,41,56,0.24)" stroke-width="1.8" opacity="1" stroke-linecap="round"></line><path d="M -5 13 Q 0 16 5 13" fill="transparent" stroke="rgba(74,58,56,0.32)" stroke-width="2.4" stroke-linecap="round"></path></g><g transform="translate(868 322) scale(0.96)"><rect x="-9" y="25" width="18" height="24" rx="8" fill="#ffe4d4" opacity="0.94"></rect><rect x="-67" y="64" width="20" height="72" rx="14" fill="rgba(223,236,250,0.92)" opacity="0.9" transform="rotate(-8 -59 92)"></rect><rect x="47" y="62" width="20" height="72" rx="14" fill="rgba(223,236,250,0.92)" opacity="0.9" transform="rotate(8 55 90)"></rect><path d="M -84 138 C -66 47, 66 47, 84 138 L 67 186 L -67 186 Z" fill="rgba(223,236,250,0.92)" opacity="0.98"></path><rect x="-12" y="40" width="24" height="64" rx="12" fill="#6db7ff" opacity="0.18"></rect><path d="M -18 52 L -6 96 L -24 114 Z" fill="rgba(255,255,255,0.9)" opacity="0.88"></path><path d="M 18 52 L 6 96 L 24 114 Z" fill="rgba(255,255,255,0.9)" opacity="0.88"></path><rect x="20" y="84" width="14" height="18" rx="8" fill="#6db7ff" opacity="0.16"></rect><circle cx="0" cy="0" r="30" fill="#ffe4d4" opacity="0.98"></circle><path d="M -30 2 C -28 -31, 28 -31, 30 2 L 21 0 C 7 -8, -7 -8, -21 0 Z" fill="#6db7ff" opacity="0.96"></path><line x1="-12" y1="-2" x2="-4" y2="-2" stroke="rgba(34,41,56,0.42)" stroke-width="2.2" opacity="1" stroke-linecap="round"></line><line x1="4" y1="-2" x2="12" y2="-2" stroke="rgba(34,41,56,0.42)" stroke-width="2.2" opacity="1" stroke-linecap="round"></line><line x1="-13" y1="-7" x2="-4" y2="-6" stroke="rgba(34,41,56,0.24)" stroke-width="1.8" opacity="1" stroke-linecap="round"></line><line x1="4" y1="-6" x2="13" y2="-7" stroke="rgba(34,41,56,0.24)" stroke-width="1.8" opacity="1" stroke-linecap="round"></line><path d="M -5 13 Q 0 16 5 13" fill="transparent" stroke="rgba(74,58,56,0.32)" stroke-width="2.4" stroke-linecap="round"></path></g><g transform="translate(952 168)"><rect x="0" y="0" width="196.00000000000003" height="112" rx="20" fill="#102237" stroke="rgba(255,255,255,0.08)" stroke-width="1.2"></rect><rect x="23.520000000000003" y="13.44" width="148.96000000000004" height="20.16" rx="12" fill="#7fd1ff" opacity="0.16"></rect><rect x="39.20000000000001" y="44.800000000000004" width="43.120000000000005" height="8.96" rx="8" fill="#6db7ff" opacity="0.2"></rect><rect x="98.00000000000001" y="44.800000000000004" width="35.28" height="8.96" rx="8" fill="#6db7ff" opacity="0.12"></rect><line x1="39.20000000000001" y1="73.92" x2="156.80000000000004" y2="73.92" stroke="rgba(255,255,255,0.12)" stroke-width="3" opacity="1" stroke-linecap="round"></line></g></g><circle cx="252" cy="84" r="42" fill="#6db7ff" opacity="0.2"></circle><circle cx="1148" cy="126" r="30.799999999999997" fill="#7fd1ff" opacity="0.22"></circle></svg>