<svg xmlns="http://www.w3.org/2000/svg" viewBox="0 0 1400 1092" width="1400" height="1092" role="img" aria-label="Facial harmony evaluation with dermatology judgment"><defs><linearGradient id="bg-v6-clinic-botox" x1="0%" y1="0%" x2="100%" y2="100%"><stop offset="0%" stop-color="#16131f" /><stop offset="55%" stop-color="#473b63" /><stop offset="100%" stop-color="#070c13" /></linearGradient><linearGradient id="panel-v6-clinic-botox" x1="10%" y1="0%" x2="90%" y2="100%"><stop offset="0%" stop-color="rgba(255,255,255,0.14)" /><stop offset="100%" stop-color="rgba(255,255,255,0.05)" /></linearGradient><radialGradient id="vignette-v6-clinic-botox" cx="50%" cy="50%" r="65%"><stop offset="45%" stop-color="rgba(255,255,255,0)" /><stop offset="100%" stop-color="rgba(0,0,0,0.18)" /></radialGradient></defs><g><rect width="1400" height="1092" fill="url(#bg-v6-clinic-botox)"></rect><circle cx="343.6782077918012" cy="316.8080986011327" r="215.45106699304912" fill="#ceb8ff" opacity="0.07096988338534019"></circle><circle cx="496.8882597626392" cy="692.5320569502964" r="266.8324248350301" fill="#ffb0a1" opacity="0.07463392607509949"></circle><circle cx="163.76291693974355" cy="925.6481790018847" r="333.96995980804087" fill="#ceb8ff" opacity="0.05427444602462334"></circle><rect x="960.5052220077499" y="534.1325853956241" width="325.7742505859989" height="146.57541416794422" rx="26" fill="#f7e3da" opacity="0.042952523872478054" transform="rotate(-2.9801305273967174 1123 607)"></rect><rect x="70" y="109.2" width="1260" height="895.4399999999999" rx="40" fill="rgba(255,255,255,0.05)" stroke="rgba(255,255,255,0.12)" stroke-width="1.8"></rect><rect x="168" y="174.72" width="1064" height="742.5600000000001" rx="34" fill="url(#panel-v6-clinic-botox)" stroke="rgba(255,255,255,0.08)" stroke-width="1.2"></rect><line x1="168" y1="829.92" x2="1232" y2="829.92" stroke="rgba(255,255,255,0.05)" stroke-width="2" opacity="1" stroke-linecap="round"></line><rect width="1400" height="1092" fill="url(#vignette-v6-clinic-botox)"></rect></g><g><rect x="196.00000000000003" y="240.24" width="1008" height="546" rx="32" fill="#12243b" opacity="0.92" stroke="rgba(255,255,255,0.08)" stroke-width="1.2"></rect><rect x="252" y="305.76000000000005" width="336" height="196.56" rx="24" fill="#ceb8ff" opacity="0.24" stroke="rgba(255,255,255,0.16)" stroke-width="1.4"></rect><rect x="896" y="283.92" width="196.00000000000003" height="174.72" rx="18" fill="#ffb0a1" opacity="0.18"></rect><rect x="364" y="611.5200000000001" width="532" height="87.36" rx="18" fill="#f7e3da" opacity="0.74"></rect><rect x="252" y="720.72" width="896" height="98.28" rx="22" fill="#473b63" opacity="0.58"></rect><circle cx="478.05566921086415" cy="218.4" r="30.799999999999997" fill="#fff5ef" opacity="0.34"></circle><rect x="336" y="393.12" width="196.00000000000003" height="21.84" rx="6" fill="#ffffff" opacity="0.22"></rect><rect x="924" y="502.32000000000005" width="126" height="174.72" rx="14" fill="rgba(255,255,255,0.12)"></rect><line x1="252" y1="808.08" x2="1148" y2="808.08" stroke="rgba(255,255,255,0.06)" stroke-width="2" opacity="1" stroke-linecap="round"></line><g transform="translate(420 284)"><rect x="0" y="0" width="588" height="371.28000000000003" rx="28" fill="#172538" opacity="0.96" stroke="rgba(255,255,255,0.08)" stroke-width="1.2"></rect><ellipse cx="223.44" cy="178.2144" rx="70.56" ry="66.8304" fill="#f7e3da" opacity="1"></ellipse><circle cx="223.44" cy="118.80960000000002" r="8.232" fill="#ffb0a1" opacity="0.34"></circle><circle cx="176.4" cy="178.2144" r="8.232" fill="#ffb0a1" opacity="0.34"></circle><circle cx="270.48" cy="178.2144" r="8.232" fill="#ffb0a1" opacity="0.34"></circle><circle cx="223.44" cy="230.1936" r="8.232" fill="#ffb0a1" opacity="0.34"></circle><line x1="223.44" y1="118.80960000000002" x2="223.44" y2="230.1936" stroke="rgba(255,255,255,0.16)" stroke-width="3" opacity="1" stroke-linecap="round"></line><line x1="176.4" y1="178.2144" x2="270.48" y2="178.2144" stroke="rgba(255,255,255,0.16)" stroke-width="3" opacity="1" stroke-linecap="round"></line><rect x="364.56" y="89.1072" width="94.08" height="29.702400000000004" rx="10" fill="#ceb8ff" opacity="0.14"></rect></g><g transform="translate(308 633) scale(0.7)"><rect x="-9" y="25" width="18" height="24" rx="8" fill="#f7e3da" opacity="0.94"></rect><rect x="-67" y="64" width="20" height="72" rx="14" fill="rgba(242,248,255,0.92)" opacity="0.9" transform="rotate(-8 -59 92)"></rect><rect x="47" y="62" width="20" height="72" rx="14" fill="rgba(242,248,255,0.92)" opacity="0.9" transform="rotate(8 55 90)"></rect><path d="M -84 138 C -66 47, 66 47, 84 138 L 67 186 L -67 186 Z" fill="rgba(242,248,255,0.92)" opacity="0.98"></path><rect x="-12" y="40" width="24" height="64" rx="12" fill="#ffb0a1" opacity="0.18"></rect><path d="M -18 52 L -6 96 L -24 114 Z" fill="rgba(255,255,255,0.9)" opacity="0.88"></path><path d="M 18 52 L 6 96 L 24 114 Z" fill="rgba(255,255,255,0.9)" opacity="0.88"></path><rect x="20" y="84" width="14" height="18" rx="8" fill="#ffb0a1" opacity="0.16"></rect><circle cx="0" cy="0" r="30" fill="#f7e3da" opacity="0.98"></circle><path d="M -30 2 C -28 -31, 28 -31, 30 2 L 21 0 C 7 -8, -7 -8, -21 0 Z" fill="#473b63" opacity="0.96"></path><line x1="-12" y1="-2" x2="-4" y2="-2" stroke="rgba(34,41,56,0.42)" stroke-width="2.2" opacity="1" stroke-linecap="round"></line><line x1="4" y1="-2" x2="12" y2="-2" stroke="rgba(34,41,56,0.42)" stroke-width="2.2" opacity="1" stroke-linecap="round"></line><line x1="-13" y1="-7" x2="-4" y2="-6" stroke="rgba(34,41,56,0.24)" stroke-width="1.8" opacity="1" stroke-linecap="round"></line><line x1="4" y1="-6" x2="13" y2="-7" stroke="rgba(34,41,56,0.24)" stroke-width="1.8" opacity="1" stroke-linecap="round"></line><path d="M -5 13 Q 0 16 5 13" fill="transparent" stroke="rgba(74,58,56,0.32)" stroke-width="2.4" stroke-linecap="round"></path></g></g><circle cx="252" cy="131.04" r="42" fill="#ceb8ff" opacity="0.2"></circle><circle cx="1148" cy="196.56" r="30.799999999999997" fill="#ffb0a1" opacity="0.22"></circle></svg>