<svg xmlns="http://www.w3.org/2000/svg" viewBox="0 0 900 1080" width="900" height="1080" role="img" aria-label="Clinical dermatology leadership"><defs><linearGradient id="bg-v6-clinic-doctor-rosero" x1="0%" y1="0%" x2="100%" y2="100%"><stop offset="0%" stop-color="#111a28" /><stop offset="55%" stop-color="#284767" /><stop offset="100%" stop-color="#070c13" /></linearGradient><linearGradient id="panel-v6-clinic-doctor-rosero" x1="10%" y1="0%" x2="90%" y2="100%"><stop offset="0%" stop-color="rgba(255,255,255,0.14)" /><stop offset="100%" stop-color="rgba(255,255,255,0.05)" /></linearGradient><radialGradient id="vignette-v6-clinic-doctor-rosero" cx="50%" cy="50%" r="65%"><stop offset="45%" stop-color="rgba(255,255,255,0)" /><stop offset="100%" stop-color="rgba(0,0,0,0.18)" /></radialGradient></defs><g><rect width="900" height="1080" fill="url(#bg-v6-clinic-doctor-rosero)"></rect><circle cx="367.76834611146904" cy="272.8813936959211" r="73.70777868239855" fill="#7eb6ff" opacity="0.08972077962004599"></circle><circle cx="176.44630671046824" cy="383.8096293978881" r="72.503747343203" fill="#9fe3ff" opacity="0.07974089592456374"></circle><circle cx="454.3144442931084" cy="817.7320963395136" r="210.59111018073537" fill="#7eb6ff" opacity="0.08229718569486802"></circle><rect x="410.77506197867336" y="326.8104359989079" width="171.91825663063634" height="262.0287332995861" rx="26" fill="#f0d7c6" opacity="0.043596763842179614" transform="rotate(-4.892447468566813 497 458)"></rect><rect x="45" y="108" width="810" height="885.5999999999999" rx="40" fill="rgba(255,255,255,0.05)" stroke="rgba(255,255,255,0.12)" stroke-width="1.8"></rect><rect x="108" y="172.8" width="684" height="734.4000000000001" rx="34" fill="url(#panel-v6-clinic-doctor-rosero)" stroke="rgba(255,255,255,0.08)" stroke-width="1.2"></rect><line x1="108" y1="820.8" x2="792" y2="820.8" stroke="rgba(255,255,255,0.05)" stroke-width="2" opacity="1" stroke-linecap="round"></line><rect width="900" height="1080" fill="url(#vignette-v6-clinic-doctor-rosero)"></rect></g><g><rect x="126.00000000000001" y="86.4" width="648" height="907.1999999999999" rx="40" fill="#122033" opacity="0.96" stroke="rgba(255,255,255,0.08)" stroke-width="1.2"></rect><circle cx="450" cy="259.2" r="180" fill="#7eb6ff" opacity="0.12"></circle><g transform="translate(450 346) scale(1)"><ellipse cx="0" cy="154" rx="118" ry="24" fill="rgba(0,0,0,0.14)" opacity="0.22"></ellipse><path d="M -118 164 C -108 96, -74 58, 0 58 C 74 58, 108 96, 118 164 L 84 164 C 72 126, 44 104, 0 104 C -44 104, -72 126, -84 164 Z" fill="rgba(245,248,255,0.98)" opacity="0.98"></path><rect x="-26" y="86" width="52" height="52" rx="18" fill="#7eb6ff" opacity="0.12"></rect><path d="M -70 78 L -20 130 L -72 150 Z" fill="rgba(255,255,255,0.88)" opacity="0.92"></path><path d="M 70 78 L 20 130 L 72 150 Z" fill="rgba(255,255,255,0.88)" opacity="0.92"></path><rect x="-16" y="52" width="32" height="44" rx="12" fill="#f0d7c6" opacity="0.94"></rect><circle cx="0" cy="0" r="62" fill="#f0d7c6" opacity="1"></circle><path d="M -62 6 C -60 -48, -32 -74, 0 -74 C 32 -74, 60 -48, 62 6 L 44 2 C 30 -20, 14 -28, 0 -28 C -14 -28, -30 -20, -44 2 Z" fill="#9fe3ff" opacity="0.96"></path><line x1="-24" y1="-6" x2="-8" y2="-6" stroke="rgba(34,41,56,0.42)" stroke-width="2.4" opacity="1" stroke-linecap="round"></line><line x1="8" y1="-6" x2="24" y2="-6" stroke="rgba(34,41,56,0.42)" stroke-width="2.4" opacity="1" stroke-linecap="round"></line><line x1="-26" y1="-20" x2="-6" y2="-16" stroke="rgba(34,41,56,0.24)" stroke-width="2" opacity="1" stroke-linecap="round"></line><line x1="6" y1="-16" x2="26" y2="-20" stroke="rgba(34,41,56,0.24)" stroke-width="2" opacity="1" stroke-linecap="round"></line><path d="M -10 26 Q 0 34 10 26" fill="transparent" stroke="rgba(74,58,56,0.34)" stroke-width="2.8" stroke-linecap="round"></path></g></g><circle cx="162" cy="129.6" r="27" fill="#7eb6ff" opacity="0.2"></circle><circle cx="738" cy="194.4" r="19.799999999999997" fill="#9fe3ff" opacity="0.22"></circle></svg>