<svg xmlns="http://www.w3.org/2000/svg" viewBox="0 0 1400 1092" width="1400" height="1092" role="img" aria-label="Dermatology laser platform with controlled settings"><defs><linearGradient id="bg-v6-clinic-laser-dermatologico" x1="0%" y1="0%" x2="100%" y2="100%"><stop offset="0%" stop-color="#0b1420" /><stop offset="55%" stop-color="#274262" /><stop offset="100%" stop-color="#070c13" /></linearGradient><linearGradient id="panel-v6-clinic-laser-dermatologico" x1="10%" y1="0%" x2="90%" y2="100%"><stop offset="0%" stop-color="rgba(255,255,255,0.14)" /><stop offset="100%" stop-color="rgba(255,255,255,0.05)" /></linearGradient><radialGradient id="vignette-v6-clinic-laser-dermatologico" cx="50%" cy="50%" r="65%"><stop offset="45%" stop-color="rgba(255,255,255,0)" /><stop offset="100%" stop-color="rgba(0,0,0,0.18)" /></radialGradient></defs><g><rect width="1400" height="1092" fill="url(#bg-v6-clinic-laser-dermatologico)"></rect><circle cx="226.7401975292573" cy="175.2482844984737" r="275.8683756161174" fill="#86b5ff" opacity="0.08650450420484518"></circle><circle cx="765.6577846630611" cy="110.13001249207417" r="296.5278909682594" fill="#60d2ff" opacity="0.08873135746427145"></circle><circle cx="990.9142312223358" cy="489.69499941475107" r="125.92882696211545" fill="#86b5ff" opacity="0.06762066830359881"></circle><rect x="407.29870186357266" y="625.6042851250629" width="329.76680804830204" height="121.38796049800422" rx="26" fill="#eed4c5" opacity="0.030849029841099173" transform="rotate(5.498929805005652 572 686)"></rect><rect x="70" y="109.2" width="1260" height="895.4399999999999" rx="40" fill="rgba(255,255,255,0.05)" stroke="rgba(255,255,255,0.12)" stroke-width="1.8"></rect><rect x="168" y="174.72" width="1064" height="742.5600000000001" rx="34" fill="url(#panel-v6-clinic-laser-dermatologico)" stroke="rgba(255,255,255,0.08)" stroke-width="1.2"></rect><line x1="168" y1="829.92" x2="1232" y2="829.92" stroke="rgba(255,255,255,0.05)" stroke-width="2" opacity="1" stroke-linecap="round"></line><rect width="1400" height="1092" fill="url(#vignette-v6-clinic-laser-dermatologico)"></rect></g><g><rect x="196.00000000000003" y="240.24" width="1008" height="546" rx="32" fill="#12243b" opacity="0.92" stroke="rgba(255,255,255,0.08)" stroke-width="1.2"></rect><rect x="252" y="305.76000000000005" width="336" height="196.56" rx="24" fill="#86b5ff" opacity="0.24" stroke="rgba(255,255,255,0.16)" stroke-width="1.4"></rect><rect x="896" y="283.92" width="196.00000000000003" height="174.72" rx="18" fill="#60d2ff" opacity="0.18"></rect><rect x="364" y="611.5200000000001" width="532" height="87.36" rx="18" fill="#eed4c5" opacity="0.74"></rect><rect x="252" y="720.72" width="896" height="98.28" rx="22" fill="#274262" opacity="0.58"></rect><circle cx="993.5849875546025" cy="218.4" r="30.799999999999997" fill="#fff5ef" opacity="0.34"></circle><rect x="336" y="393.12" width="196.00000000000003" height="21.84" rx="6" fill="#ffffff" opacity="0.22"></rect><rect x="924" y="502.32000000000005" width="126" height="174.72" rx="14" fill="rgba(255,255,255,0.12)"></rect><line x1="252" y1="808.08" x2="1148" y2="808.08" stroke="rgba(255,255,255,0.06)" stroke-width="2" opacity="1" stroke-linecap="round"></line><g transform="translate(392 284)"><rect x="0" y="0" width="644" height="371.28000000000003" rx="28" fill="#172538" opacity="0.96" stroke="rgba(255,255,255,0.08)" stroke-width="1.2"></rect><rect x="103.04" y="81.6816" width="90.16000000000001" height="155.9376" rx="18" fill="rgba(241,247,255,0.9)"></rect><rect x="122.36" y="118.80960000000002" width="51.52" height="37.12800000000001" rx="10" fill="#60d2ff" opacity="0.18"></rect><line x1="193.2" y1="170.7888" x2="463.68" y2="126.23520000000002" stroke="#60d2ff" stroke-width="8" opacity="0.36" stroke-linecap="round"></line><circle cx="502.32" cy="118.80960000000002" r="51.52" fill="#86b5ff" opacity="0.18"></circle><circle cx="502.32" cy="118.80960000000002" r="19.32" fill="#60d2ff" opacity="0.34"></circle></g><g transform="translate(336 633) scale(0.78)"><rect x="-9" y="25" width="18" height="24" rx="8" fill="#eed4c5" opacity="0.94"></rect><rect x="-67" y="64" width="20" height="72" rx="14" fill="rgba(242,248,255,0.92)" opacity="0.9" transform="rotate(-8 -59 92)"></rect><rect x="47" y="62" width="20" height="72" rx="14" fill="rgba(242,248,255,0.92)" opacity="0.9" transform="rotate(8 55 90)"></rect><path d="M -84 138 C -66 47, 66 47, 84 138 L 67 186 L -67 186 Z" fill="rgba(242,248,255,0.92)" opacity="0.98"></path><rect x="-12" y="40" width="24" height="64" rx="12" fill="#60d2ff" opacity="0.18"></rect><path d="M -18 52 L -6 96 L -24 114 Z" fill="rgba(255,255,255,0.9)" opacity="0.88"></path><path d="M 18 52 L 6 96 L 24 114 Z" fill="rgba(255,255,255,0.9)" opacity="0.88"></path><rect x="20" y="84" width="14" height="18" rx="8" fill="#60d2ff" opacity="0.16"></rect><circle cx="0" cy="0" r="30" fill="#eed4c5" opacity="0.98"></circle><path d="M -30 2 C -28 -31, 28 -31, 30 2 L 21 0 C 7 -8, -7 -8, -21 0 Z" fill="#274262" opacity="0.96"></path><line x1="-12" y1="-2" x2="-4" y2="-2" stroke="rgba(34,41,56,0.42)" stroke-width="2.2" opacity="1" stroke-linecap="round"></line><line x1="4" y1="-2" x2="12" y2="-2" stroke="rgba(34,41,56,0.42)" stroke-width="2.2" opacity="1" stroke-linecap="round"></line><line x1="-13" y1="-7" x2="-4" y2="-6" stroke="rgba(34,41,56,0.24)" stroke-width="1.8" opacity="1" stroke-linecap="round"></line><line x1="4" y1="-6" x2="13" y2="-7" stroke="rgba(34,41,56,0.24)" stroke-width="1.8" opacity="1" stroke-linecap="round"></line><path d="M -5 13 Q 0 16 5 13" fill="transparent" stroke="rgba(74,58,56,0.32)" stroke-width="2.4" stroke-linecap="round"></path></g><g transform="translate(840 677) scale(0.64)"><rect x="-9" y="25" width="18" height="24" rx="8" fill="#eed4c5" opacity="0.94"></rect><rect x="-67" y="64" width="20" height="72" rx="14" fill="rgba(240,224,214,0.82)" opacity="0.9" transform="rotate(-8 -59 92)"></rect><rect x="47" y="62" width="20" height="72" rx="14" fill="rgba(240,224,214,0.82)" opacity="0.9" transform="rotate(8 55 90)"></rect><path d="M -84 138 C -66 47, 66 47, 84 138 L 67 186 L -67 186 Z" fill="rgba(240,224,214,0.82)" opacity="0.98"></path><rect x="-12" y="40" width="24" height="64" rx="12" fill="#86b5ff" opacity="0.18"></rect><path d="M -18 52 L -6 96 L -24 114 Z" fill="rgba(255,255,255,0.9)" opacity="0.88"></path><path d="M 18 52 L 6 96 L 24 114 Z" fill="rgba(255,255,255,0.9)" opacity="0.88"></path><rect x="20" y="84" width="14" height="18" rx="8" fill="#86b5ff" opacity="0.16"></rect><circle cx="0" cy="0" r="30" fill="#eed4c5" opacity="0.98"></circle><path d="M -30 2 C -28 -31, 28 -31, 30 2 L 21 0 C 7 -8, -7 -8, -21 0 Z" fill="#274262" opacity="0.96"></path><line x1="-12" y1="-2" x2="-4" y2="-2" stroke="rgba(34,41,56,0.42)" stroke-width="2.2" opacity="1" stroke-linecap="round"></line><line x1="4" y1="-2" x2="12" y2="-2" stroke="rgba(34,41,56,0.42)" stroke-width="2.2" opacity="1" stroke-linecap="round"></line><line x1="-13" y1="-7" x2="-4" y2="-6" stroke="rgba(34,41,56,0.24)" stroke-width="1.8" opacity="1" stroke-linecap="round"></line><line x1="4" y1="-6" x2="13" y2="-7" stroke="rgba(34,41,56,0.24)" stroke-width="1.8" opacity="1" stroke-linecap="round"></line><path d="M -5 13 Q 0 16 5 13" fill="transparent" stroke="rgba(74,58,56,0.32)" stroke-width="2.4" stroke-linecap="round"></path></g></g><circle cx="252" cy="131.04" r="42" fill="#86b5ff" opacity="0.2"></circle><circle cx="1148" cy="196.56" r="30.799999999999997" fill="#60d2ff" opacity="0.22"></circle></svg>